<svg xmlns="http://www.w3.org/2000/svg" width="232.661" height="115.569" viewBox="0 0 232.661 115.569"><g transform="translate(-38.732 -84.755)"><path d="M177.757,197.293v-8.669h-3.334v-1.18h8v1.18H179.09v8.669h-1.333Z" fill="#511d7c" fill-rule="evenodd"/><path d="M185.1,197.485a2.374,2.374,0,0,1-1.667-.563,1.96,1.96,0,0,1-.62-1.521,2.047,2.047,0,0,1,.582-1.534,2.854,2.854,0,0,1,1.693-.712l1.643-.207a2.4,2.4,0,0,0,.381-.067.621.621,0,0,0,.364-.242.794.794,0,0,0,.125-.459v-.059a1.066,1.066,0,0,0-.436-.907,1.992,1.992,0,0,0-1.217-.327,1.773,1.773,0,0,0-1.161.345,1.521,1.521,0,0,0-.5,1.027h-1.113a2.36,2.36,0,0,1,.83-1.768,3.356,3.356,0,0,1,2.129-.591,3.067,3.067,0,0,1,1.994.566,2.017,2.017,0,0,1,.685,1.653v3.943a.379.379,0,0,0,.113.291.394.394,0,0,0,.3.112,1.1,1.1,0,0,0,.16-.015c.068-.009.143-.022.224-.04v.872a2.435,2.435,0,0,1-.37.108,1.733,1.733,0,0,1-.33.04,1.226,1.226,0,0,1-.995-.374,1.6,1.6,0,0,1-.288-.7,2.8,2.8,0,0,1-.307.322A3.2,3.2,0,0,1,185.1,197.485Zm2.5-3.033v-.78a2.582,2.582,0,0,1-.745.222l-1.1.16a2.965,2.965,0,0,0-1.274.406.909.909,0,0,0-.4.779,1.142,1.142,0,0,0,1.262,1.259,2.526,2.526,0,0,0,1.607-.518,1.775,1.775,0,0,0,.6-.821,1.6,1.6,0,0,0,.041-.276C187.591,194.752,187.6,194.609,187.6,194.452Z" fill="#511d7c" fill-rule="evenodd"/><path d="M190.58,197.293v-9.849h1.205v5.675l3.027-3h1.533l-2.724,2.661,2.905,4.513h-1.572l-2.227-3.644-.943.921v2.722H190.58Z" fill="#511d7c" fill-rule="evenodd"/><path d="M197.161,197.293v-7.174h1.206v7.174h-1.206Zm-.015-9.862h1.236V188.8h-1.236Z" fill="#511d7c" fill-rule="evenodd"/><path d="M199.879,197.293v-7.174h1.148v1.054l.269-.356a2.433,2.433,0,0,1,4.429,1.558v4.918h-1.208v-4.51a2.079,2.079,0,0,0-.364-1.366,1.488,1.488,0,0,0-1.181-.42,1.644,1.644,0,0,0-1.378.661,2.857,2.857,0,0,0-.507,1.789v3.846h-1.208Z" fill="#511d7c" fill-rule="evenodd"/><path d="M209.851,199.323a1.933,1.933,0,0,0,1.577-.654,2.948,2.948,0,0,0,.542-1.908v-.233l-.009.006a2.354,2.354,0,0,1-1.943.951,2.762,2.762,0,0,1-2.287-1.076,4.561,4.561,0,0,1-.851-2.909,3.912,3.912,0,0,1,.837-2.607,2.719,2.719,0,0,1,2.187-.993,2.352,2.352,0,0,1,2.051,1.118l.086.128v-1.027h1.135v6.645a3.842,3.842,0,0,1-.82,2.688,3.235,3.235,0,0,1-2.488.872,3.046,3.046,0,0,1-1.934-.562,2.394,2.394,0,0,1-.864-1.633h1.236a1.391,1.391,0,0,0,.508.884A1.662,1.662,0,0,0,209.851,199.323Zm.232-8.326a1.693,1.693,0,0,0-1.477.645,3.553,3.553,0,0,0-.464,2.047,3.481,3.481,0,0,0,.506,2.038,1.644,1.644,0,0,0,1.435.716,1.733,1.733,0,0,0,1.411-.658,2.673,2.673,0,0,0,.535-1.74,4.307,4.307,0,0,0-.488-2.286A1.611,1.611,0,0,0,210.083,191Z" fill="#511d7c" fill-rule="evenodd"/><path d="M218.453,197.293v-9.849h1.333v9.849h-1.333Z" fill="#511d7c" fill-rule="evenodd"/><path d="M224.264,197.293v-8.669h-3.331v-1.18h8v1.18H225.6v8.669h-1.333Z" fill="#511d7c" fill-rule="evenodd"/><path d="M233.417,197.293v-9.849h1.33v4.034h5.143v-4.034h1.328v9.849h-1.328v-4.636h-5.143v4.636h-1.33Z" fill="#511d7c" fill-rule="evenodd"/><path d="M242.927,197.293v-7.174h1.206v7.174h-1.206Zm-.015-9.862h1.235V188.8h-1.235Z" fill="#511d7c" fill-rule="evenodd"/><path d="M248.273,199.323a1.935,1.935,0,0,0,1.578-.654,2.948,2.948,0,0,0,.542-1.908v-.233l-.009.006a2.355,2.355,0,0,1-1.942.951,2.763,2.763,0,0,1-2.289-1.076,4.561,4.561,0,0,1-.85-2.909,3.912,3.912,0,0,1,.836-2.607,2.72,2.72,0,0,1,2.187-.993,2.356,2.356,0,0,1,2.052,1.118l.086.128v-1.027H251.6v6.645a3.842,3.842,0,0,1-.819,2.688,3.236,3.236,0,0,1-2.488.872,3.052,3.052,0,0,1-1.935-.562,2.393,2.393,0,0,1-.863-1.633h1.235a1.392,1.392,0,0,0,.509.884A1.663,1.663,0,0,0,248.273,199.323Zm.232-8.326a1.689,1.689,0,0,0-1.476.645,3.544,3.544,0,0,0-.465,2.047,3.48,3.48,0,0,0,.506,2.038,1.645,1.645,0,0,0,1.435.716,1.731,1.731,0,0,0,1.411-.658,2.673,2.673,0,0,0,.536-1.74,4.307,4.307,0,0,0-.488-2.286A1.612,1.612,0,0,0,248.505,191Z" fill="#511d7c" fill-rule="evenodd"/><path d="M252.988,197.293v-9.849h1.2v3.641l.209-.268a2.43,2.43,0,0,1,4.426,1.558v4.918h-1.205v-4.619a1.929,1.929,0,0,0-.343-1.284,1.39,1.39,0,0,0-1.107-.393,1.761,1.761,0,0,0-1.446.661,2.772,2.772,0,0,0-.534,1.789v3.846h-1.2Z" fill="#511d7c" fill-rule="evenodd"/><path d="M263.248,197.485a3.051,3.051,0,0,1-2.39-.966,3.823,3.823,0,0,1-.872-2.669,4.273,4.273,0,0,1,.92-2.881,3.1,3.1,0,0,1,2.477-1.069,2.8,2.8,0,0,1,2.267,1.046,4.167,4.167,0,0,1,.864,2.749l-.012.429h-5.233a3.13,3.13,0,0,0,.488,1.634,1.871,1.871,0,0,0,1.607.685,1.946,1.946,0,0,0,1.2-.387,1.565,1.565,0,0,0,.631-.985h1.194a3.026,3.026,0,0,1-1.072,1.8A3.308,3.308,0,0,1,263.248,197.485Zm2.016-4.334a2.683,2.683,0,0,0-.5-1.552,1.72,1.72,0,0,0-1.432-.615,1.849,1.849,0,0,0-1.522.708,2.736,2.736,0,0,0-.544,1.459Z" fill="#511d7c" fill-rule="evenodd"/><path d="M267.836,197.293v-7.174h1.148v1.226a3.974,3.974,0,0,1,.327-.525,2.031,2.031,0,0,1,1.679-.92,1.021,1.021,0,0,1,.343.06V191.2l-.247-.006a1.944,1.944,0,0,0-1.512.586,2.424,2.424,0,0,0-.53,1.673v3.845h-1.208Z" fill="#511d7c" fill-rule="evenodd"/><path d="M174.1,182.116" fill="none" stroke="#75cce0" stroke-miterlimit="3.864" stroke-width="0.45" stroke-dasharray="4 4" fill-rule="evenodd"/><path d="M169.086,182.116" fill="none" stroke="#75cce0" stroke-miterlimit="3.864" stroke-width="0.45" stroke-dasharray="4 4" fill-rule="evenodd"/><path d="M38.732,182.116" fill="none" stroke="#75cce0" stroke-miterlimit="3.864" stroke-width="0.45" stroke-dasharray="4 4" fill-rule="evenodd"/><path d="M43.873,182.116" fill="none" stroke="#75cce0" stroke-miterlimit="3.864" stroke-width="0.45" stroke-dasharray="4 4" fill-rule="evenodd"/><path d="M269.526,175.3" fill="none" stroke="#75cce0" stroke-miterlimit="3.864" stroke-width="0.45" stroke-dasharray="4 4" fill-rule="evenodd"/><rect width="97.192" height="97.202" transform="translate(174.102 84.755)" fill="#511d7c"/><rect width="226.829" height="1.119" transform="translate(44.563 181.862)" fill="#511d7c"/><path d="M54.619,181.961H58.5v-14.37h5.284v-3.258H49.338v3.258h5.28Z" fill="#511d7c" fill-rule="evenodd"/><path d="M73.3,176.431c.247-3.925-1.854-7.58-6.2-7.58a6.4,6.4,0,0,0-6.516,6.74c0,3.95,2.491,6.716,6.516,6.716a5.74,5.74,0,0,0,5.974-4.3H70a2.891,2.891,0,0,1-2.769,1.653c-1.949,0-3.036-1.012-3.134-3.234Zm-9.21-2.222a2.766,2.766,0,0,1,2.915-2.716c1.7,0,2.47.939,2.789,2.716Z" fill="#511d7c" fill-rule="evenodd"/><path d="M86.01,173.691c-.22-3.259-2.985-4.84-6-4.84-4.147,0-6.516,2.938-6.516,6.913a6.192,6.192,0,0,0,6.441,6.543c3.358,0,5.7-1.851,6.15-5.235H82.7a2.7,2.7,0,0,1-2.789,2.593c-2.2,0-2.914-2.2-2.914-4.024,0-1.876.741-4.148,2.989-4.148a2.392,2.392,0,0,1,2.592,2.2Z" fill="#511d7c" fill-rule="evenodd"/><path d="M86.576,181.961h3.506V175.27c0-2.591.816-3.654,2.715-3.654,1.631,0,2.247,1.038,2.247,3.136v7.209h3.5v-7.85c0-3.162-.935-5.26-4.664-5.26a4.492,4.492,0,0,0-3.73,2.124h-.072v-6.641H86.576Z" fill="#511d7c" fill-rule="evenodd"/><path d="M99.727,181.961h3.506V175.27c0-2.591.816-3.654,2.715-3.654,1.631,0,2.247,1.038,2.247,3.136v7.209H111.7v-7.85c0-3.162-.938-5.26-4.668-5.26a4.56,4.56,0,0,0-3.9,2.124h-.072V169.2H99.727Z" fill="#511d7c" fill-rule="evenodd"/><path d="M112.485,175.591c0,4.05,2.589,6.716,6.59,6.716,4.025,0,6.617-2.666,6.617-6.716,0-4.073-2.592-6.74-6.617-6.74C115.074,168.851,112.485,171.518,112.485,175.591Zm3.506,0c0-2.049.715-4.1,3.084-4.1,2.393,0,3.113,2.049,3.113,4.1,0,2.025-.72,4.074-3.113,4.074C116.706,179.665,115.991,177.616,115.991,175.591Z" fill="#511d7c" fill-rule="evenodd"/><rect width="3.506" height="17.627" transform="translate(126.573 164.334)" fill="#511d7c"/><path d="M130.964,175.591c0,4.05,2.592,6.716,6.59,6.716,4.024,0,6.62-2.666,6.62-6.716,0-4.073-2.6-6.74-6.62-6.74C133.556,168.851,130.964,171.518,130.964,175.591Zm3.506,0c0-2.049.715-4.1,3.084-4.1,2.4,0,3.113,2.049,3.113,4.1,0,2.025-.717,4.074-3.113,4.074C135.185,179.665,134.47,177.616,134.47,175.591Z" fill="#511d7c" fill-rule="evenodd"/><path d="M157.224,169.2h-3.331v1.7h-.051a3.97,3.97,0,0,0-3.8-2.049c-3.581,0-5.48,3.012-5.48,6.321,0,3.506,1.628,6.419,5.453,6.419a4.31,4.31,0,0,0,3.828-1.975h.051v1.679c.023,1.828-.867,3.16-2.813,3.16a2.373,2.373,0,0,1-2.62-1.752h-3.483c.173,2.912,3.114,4.1,5.632,4.1,5.876,0,6.615-3.554,6.615-5.654Zm-6.32,9.751c-2.146,0-2.837-2-2.837-3.826,0-1.9.864-3.63,2.837-3.63,2.272,0,2.989,1.853,2.989,3.926C153.893,177.247,152.9,178.949,150.9,178.949Z" fill="#511d7c" fill-rule="evenodd"/><path d="M170.178,169.2h-3.625l-2.793,8.739h-.047l-2.891-8.739h-3.754l4.5,11.973a1.654,1.654,0,0,1-1.208,2.395,18.408,18.408,0,0,1-2.051-.124v2.889a20.629,20.629,0,0,0,2.146.124c2.423,0,3.632-.84,4.4-2.889Z" fill="#511d7c" fill-rule="evenodd"/><rect width="3.876" height="17.627" transform="translate(58.804 142.509)" fill="#511d7c"/><path d="M64.233,160.137H67.74v-6.69c0-2.593.812-3.656,2.715-3.656,1.627,0,2.244,1.038,2.244,3.136v7.21h3.507v-7.851c0-3.16-.938-5.26-4.668-5.26a4.55,4.55,0,0,0-3.9,2.124h-.075v-1.777H64.233Z" fill="#511d7c" fill-rule="evenodd"/><path d="M78.149,160.137h3.507V149.719h2.42v-2.346h-2.42v-.767c0-1.061.4-1.455,1.33-1.455a10.97,10.97,0,0,1,1.286.073v-2.617c-.592-.024-1.235-.1-1.852-.1-2.863,0-4.271,1.63-4.271,3.876v.988h-2.1v2.346h2.1Z" fill="#511d7c" fill-rule="evenodd"/><path d="M83.721,153.767c0,4.049,2.593,6.715,6.593,6.715,4.025,0,6.615-2.666,6.615-6.715,0-4.074-2.59-6.741-6.615-6.741C86.314,147.026,83.721,149.693,83.721,153.767Zm3.5,0c0-2.05.717-4.1,3.089-4.1,2.394,0,3.108,2.048,3.108,4.1,0,2.025-.714,4.073-3.108,4.073C87.942,157.84,87.225,155.792,87.225,153.767Z" fill="#511d7c" fill-rule="evenodd"/><path d="M113.586,148.434c-.467-4.073-3.727-6.345-7.6-6.345-5.459,0-8.668,4.074-8.668,9.308,0,5.086,3.209,9.16,8.668,9.16a7.443,7.443,0,0,0,7.752-7.21h-3.751c-.3,2.322-1.631,3.95-4,3.95-3.482,0-4.792-2.962-4.792-5.9,0-3.086,1.31-6.05,4.792-6.05a3.811,3.811,0,0,1,3.852,3.087Z" fill="#511d7c" fill-rule="evenodd"/><path d="M114.128,153.767c0,4.049,2.592,6.715,6.59,6.715,4.024,0,6.62-2.666,6.62-6.715,0-4.074-2.6-6.741-6.62-6.741C116.72,147.026,114.128,149.693,114.128,153.767Zm3.506,0c0-2.05.715-4.1,3.084-4.1,2.4,0,3.113,2.048,3.113,4.1,0,2.025-.717,4.073-3.113,4.073C118.349,157.84,117.634,155.792,117.634,153.767Z" fill="#511d7c" fill-rule="evenodd"/><path d="M128.219,160.137h3.507v-7.408c0-2.493,1.678-2.938,2.369-2.938,2.22,0,2.122,1.705,2.122,3.186v7.16h3.507v-7.11c0-1.606.369-3.236,2.345-3.236,2,0,2.147,1.408,2.147,3.113v7.233h3.506V151.6c0-3.308-1.95-4.569-4.667-4.569a4.65,4.65,0,0,0-3.852,2.124,3.775,3.775,0,0,0-3.727-2.124,4.6,4.6,0,0,0-3.9,2.075h-.051v-1.728h-3.307Z" fill="#511d7c" fill-rule="evenodd"/><path d="M149.1,160.137h3.5v-7.408c0-2.493,1.679-2.938,2.371-2.938,2.219,0,2.122,1.705,2.122,3.186v7.16h3.5v-7.11c0-1.606.372-3.236,2.345-3.236,2,0,2.15,1.408,2.15,3.113v7.233H168.6V151.6c0-3.308-1.951-4.569-4.668-4.569a4.65,4.65,0,0,0-3.852,2.124,3.773,3.773,0,0,0-3.727-2.124,4.6,4.6,0,0,0-3.9,2.075H152.4v-1.728H149.1Z" fill="#511d7c" fill-rule="evenodd"/><path d="M70.978,132.461c-.05,4.345,3.6,6.271,7.5,6.271,4.79,0,7.332-2.419,7.332-5.654,0-4-3.947-4.813-5.233-5.135-4.42-1.136-5.257-1.308-5.257-2.667,0-1.481,1.429-2,2.664-2,1.852,0,3.358.543,3.48,2.666h3.757c0-4.074-3.385-5.678-7.064-5.678-3.185,0-6.593,1.728-6.593,5.332,0,3.309,2.643,4.321,5.263,5.013,2.589.691,5.232,1.012,5.232,2.912,0,1.8-2.074,2.2-3.435,2.2-2.071,0-3.9-.912-3.9-3.258Z" fill="#511d7c" fill-rule="evenodd"/><path d="M98.378,130.042c-.223-3.26-2.985-4.839-6-4.839-4.149,0-6.519,2.938-6.519,6.912a6.2,6.2,0,0,0,6.445,6.544c3.358,0,5.7-1.853,6.147-5.235H95.071a2.7,2.7,0,0,1-2.792,2.592c-2.2,0-2.911-2.2-2.911-4.023,0-1.877.738-4.148,2.988-4.148a2.387,2.387,0,0,1,2.59,2.2Z" fill="#511d7c" fill-rule="evenodd"/><path d="M98.941,138.312h3.506v-6.69c0-2.593.816-3.655,2.715-3.655,1.631,0,2.251,1.037,2.251,3.136v7.209h3.5v-7.851c0-3.16-.938-5.258-4.665-5.258a4.488,4.488,0,0,0-3.729,2.122h-.075v-6.64H98.941Z" fill="#511d7c" fill-rule="evenodd"/><path d="M111.7,131.942c0,4.05,2.592,6.717,6.59,6.717,4.024,0,6.62-2.667,6.62-6.717,0-4.073-2.6-6.739-6.62-6.739C114.291,125.2,111.7,127.869,111.7,131.942Zm3.506,0c0-2.049.715-4.1,3.084-4.1,2.4,0,3.114,2.048,3.114,4.1,0,2.026-.718,4.074-3.114,4.074C115.92,136.016,115.205,133.968,115.205,131.942Z" fill="#511d7c" fill-rule="evenodd"/><path d="M125.3,131.942c0,4.05,2.59,6.717,6.59,6.717,4.025,0,6.617-2.667,6.617-6.717,0-4.073-2.592-6.739-6.617-6.739C127.886,125.2,125.3,127.869,125.3,131.942Zm3.5,0c0-2.049.717-4.1,3.086-4.1,2.394,0,3.111,2.048,3.111,4.1,0,2.026-.717,4.074-3.111,4.074C129.517,136.016,128.8,133.968,128.8,131.942Z" fill="#511d7c" fill-rule="evenodd"/><rect width="3.503" height="17.627" transform="translate(139.385 120.685)" fill="#511d7c"/><path d="M149.15,131.942c0,4.05,2.593,6.717,6.591,6.717,4.027,0,6.62-2.667,6.62-6.717,0-4.073-2.593-6.739-6.62-6.739C151.743,125.2,149.15,127.869,149.15,131.942Zm3.507,0c0-2.049.715-4.1,3.084-4.1,2.4,0,3.113,2.048,3.113,4.1,0,2.026-.713,4.074-3.113,4.074C153.372,136.016,152.657,133.968,152.657,131.942Z" fill="#511d7c" fill-rule="evenodd"/><path d="M163.909,138.312h3.507V127.894h2.417v-2.346h-2.417v-.765c0-1.062.393-1.457,1.333-1.457a10.7,10.7,0,0,1,1.28.074v-2.617c-.59-.024-1.232-.1-1.851-.1-2.864,0-4.269,1.629-4.269,3.875v.988h-2.1v2.346h2.1Z" fill="#511d7c" fill-rule="evenodd"/><path d="M193.372,181.274h13.243V133.066H193.372Zm13.243-66.579H193.372v10.911h13.243Z" fill="#fff" fill-rule="evenodd"/><path d="M250.234,154.908c-.708-10.387-9.522-15.425-19.125-15.425-13.221,0-20.776,9.367-20.776,22.036,0,12.2,8.263,20.858,20.542,20.858,10.7,0,18.178-5.9,19.6-16.686H239.688c-.708,4.959-3.7,8.264-8.891,8.264-7,0-9.29-7.005-9.29-12.829,0-5.981,2.363-13.222,9.525-13.222,4.644,0,7.555,2.44,8.264,7Z" fill="#fff" fill-rule="evenodd"/><path d="M263.046,128.387H251.869v12.2H245.1v7.476h6.767v24c0,8.105,5.983,9.68,12.829,9.68a42.83,42.83,0,0,0,6.533-.393v-8.737a17.119,17.119,0,0,1-3.462.316c-3.78,0-4.723-.945-4.723-4.723V148.062h8.185v-7.476h-8.185Z" fill="#fff" fill-rule="evenodd"/></g></svg>