<svg xmlns="http://www.w3.org/2000/svg" xmlns:xlink="http://www.w3.org/1999/xlink" width="186.878" height="42.566" viewBox="0 0 186.878 42.566"><defs><clipPath id="a"><path d="M218.934,177.582a10.949,10.949,0,0,1,9.825,2.928,10.885,10.885,0,0,1,7.665-3.14,11.067,11.067,0,0,1,2.161.21v18.59a10.955,10.955,0,0,0-9.826,2.926,10.953,10.953,0,0,0-9.825-2.926Z" fill="#003067"/></clipPath></defs><g transform="translate(-212.913 -164.242)"><path d="M212.913,164.242H244.8v24.1c-.465,9.628-9.848,17.865-16.121,18.466-6.409-1.146-15.656-8.865-15.765-19.005C212.957,187.8,212.913,164.242,212.913,164.242Z" fill="#ffc200" fill-rule="evenodd"/><path d="M242.932,188.123c-.235,7.955-8.422,15.467-14.321,16.785-4.792-1.357-13.791-8.108-13.826-17.278l-.006-11.76h28.153Z" fill="#b01c12" fill-rule="evenodd"/><path d="M218.934,177.582a10.949,10.949,0,0,1,9.825,2.928,10.885,10.885,0,0,1,7.665-3.14,11.067,11.067,0,0,1,2.161.21v18.59a10.955,10.955,0,0,0-9.826,2.926,10.953,10.953,0,0,0-9.825-2.926Z" fill="#003067"/><g clip-path="url(#a)"><rect width="11.197" height="23.151" transform="translate(228.762 176.608)" fill="#006ea4"/></g><path d="M221.1,194.646a7.55,7.55,0,0,0-.969.062V178.737a7.222,7.222,0,0,1,.945-.062,10.871,10.871,0,0,1,7.447,2.931,2.7,2.7,0,0,0,.24.222c.069-.07.187-.166.249-.245a10.708,10.708,0,0,1,7.416-2.9,7.555,7.555,0,0,1,.968.062v15.963a7.557,7.557,0,0,0-.968-.062,10.881,10.881,0,0,0-7.665,3.141A10.884,10.884,0,0,0,221.1,194.646Z" fill="#fff"/><path d="M224.92,189a3.826,3.826,0,1,0,3.826-3.826A3.827,3.827,0,0,0,224.92,189Z" fill="#ffc200" fill-rule="evenodd"/><path d="M224.271,189a4.478,4.478,0,1,0,4.478-4.478A4.477,4.477,0,0,0,224.271,189Zm-1.45-2.46.834-1.445.778.449a5.6,5.6,0,0,1,.86-.86l-.449-.779,1.445-.834.448.777a5.517,5.517,0,0,1,1.177-.314v-.9h1.668v.9a5.506,5.506,0,0,1,1.176.313l.447-.776,1.445.834-.448.777a5.581,5.581,0,0,1,.868.87l.778-.449.834,1.445-.78.45a5.478,5.478,0,0,1,.313,1.168h.9v1.669h-.9a5.492,5.492,0,0,1-.315,1.174l.779.45-.835,1.444-.779-.448a5.64,5.64,0,0,1-.864.863l.449.779-1.445.833-.449-.778a5.469,5.469,0,0,1-1.178.315v.9h-1.67v-.9a5.528,5.528,0,0,1-1.17-.313l-.449.778-1.445-.833.45-.78a5.633,5.633,0,0,1-.86-.859l-.779.45-.834-1.446.778-.448a5.366,5.366,0,0,1-.316-1.179h-.9v-1.669h.9a5.412,5.412,0,0,1,.315-1.178Z" fill="#ffc200"/><path d="M228.2,192.254c-.628-.009-.725-1.2-.839-2.588-.018-.242-.039-.484-.06-.718-.11-1.821-.379-2.291-.466-2.314-.189,0-.448,1.009-.5,2.31l-.006.161h-2.648a.167.167,0,0,1-.167-.167.168.168,0,0,1,.167-.169h2.326c.042-.854.205-2.47.826-2.47.176,0,.643,0,.8,2.623.023.229.043.473.062.717.074.9.186,2.275.5,2.279s.444-1.413.526-2.345c.12-1.4.225-2.6.84-2.6h0c.4,0,.566.634.7,1.582.027.205.052.407.077.6.083.69.188,1.55.417,1.553.064-.018.244-.229.416-1.791l.015-.15h2.618a.169.169,0,0,1,.168.169.167.167,0,0,1-.168.167h-2.317c-.14,1.228-.312,1.935-.732,1.941-.528-.007-.621-.779-.751-1.848-.024-.194-.048-.4-.076-.6-.169-1.218-.347-1.289-.367-1.292h0c-.307,0-.432,1.437-.508,2.295C228.935,191.021,228.828,192.245,228.2,192.254Z" fill="#003067"/><path d="M220.047,173.074c-.406.28-.445.357-.544.528a.2.2,0,0,0,.155.3,2.5,2.5,0,0,0,.822-.352,1.2,1.2,0,0,0,.567-.654c0-.082-.088-.153-.226-.147A1.45,1.45,0,0,0,220.047,173.074Zm.6-1.016a.344.344,0,0,0,.135.262c.12.112.3.044.418.021a4.224,4.224,0,0,1,.748-.059.481.481,0,0,1,.4.172,1.1,1.1,0,0,1,.252.53,1.056,1.056,0,0,1-.152.731.887.887,0,0,1-.271.308.978.978,0,0,1-.329.142.336.336,0,0,1-.218-.043.953.953,0,0,0,.482-.3,1.15,1.15,0,0,0,.249-.621.733.733,0,0,0-.214-.547.326.326,0,0,0-.306-.082.254.254,0,0,0-.194.164.68.68,0,0,1-.15.321c-.1.1-.455.455-.619.6a2.878,2.878,0,0,1-.748.407.982.982,0,0,1-.826,0,.472.472,0,0,1-.1-.363.611.611,0,0,1,.216-.486,3.884,3.884,0,0,1,.657-.484.348.348,0,0,0,.171-.285.333.333,0,0,0-.073-.283c-.069-.075-.114-.1-.278-.112s-.216.074-.336.053-.127-.128-.1-.247a.276.276,0,0,1,.239-.194,2.146,2.146,0,0,0,.365-.06.977.977,0,0,0,.307-.165c.044-.037.066-.186.111-.313a.605.605,0,0,1,.164-.225c.045-.051.151-.11.2-.067a.28.28,0,0,0,.224.105.457.457,0,0,0,.307-.112,4.565,4.565,0,0,1,.739-.426.624.624,0,0,1,.591.127.812.812,0,0,1,.275.5.446.446,0,0,1-.135.434c-.126.075-.3.284-.47.276s-.276-.06-.246-.12.142-.1.224-.209.328-.305.352-.388a.223.223,0,0,0-.054-.23c-.067-.069-.067-.106-.32-.143s-.643.343-.8.53a2.635,2.635,0,0,1-.725.515A.314.314,0,0,0,220.65,172.058Z" fill="#003067" fill-rule="evenodd"/><path d="M225.662,170.849a1.012,1.012,0,0,1,.336.634,2.3,2.3,0,0,1-.164.807,1.966,1.966,0,0,1-.315.366.305.305,0,0,0-.052.1l.008.426a.119.119,0,0,0,.1.023c.108-.042.194-.239.217-.292a.912.912,0,0,1,.225-.283c.126-.112.439-.359.439-.359a.224.224,0,0,1-.022.157,2.413,2.413,0,0,0-.187.277.792.792,0,0,1-.12.246,2.024,2.024,0,0,0-.284.328c-.1.158-.089.262-.133.3a.368.368,0,0,1-.24.075.483.483,0,0,1-.231-.12.054.054,0,0,1-.015-.082l-.015-.664a.434.434,0,0,1-.06-.15c-.023-.1-.015-.059-.066-.112s-.076-.261-.016-.3a.941.941,0,0,0,.149-.135.164.164,0,0,1,.165-.022.279.279,0,0,0,.164.075c.067,0,.157-.031.157-.09s.022-.321.022-.359a.526.526,0,0,0-.059-.261c-.06-.1-.217-.269-.33-.254s-.4.015-.462.037-.044.061-.075.076a.278.278,0,0,1-.283,0c-.045-.03-.031-.218,0-.284a.255.255,0,0,1,.194-.157c.082,0,.545-.03.634-.03A.88.88,0,0,1,225.662,170.849Z" fill="#003067" fill-rule="evenodd"/><path d="M227.627,172.849a.182.182,0,0,0-.121.016c-.06.033-.083.083-.133.2s.012.132.072.121.078-.044.143-.127A.279.279,0,0,0,227.627,172.849Zm-.345-2.09a2.633,2.633,0,0,1,.687-.433,1.73,1.73,0,0,1,.7-.089.488.488,0,0,1,.4.29.923.923,0,0,1,0,.621,1.161,1.161,0,0,1-.478.485,1.956,1.956,0,0,1-.366.1.313.313,0,0,1-.112.09.356.356,0,0,0-.112.067s-.029,0-.037.044-.023.673-.023.673a.319.319,0,0,1,.113.1.485.485,0,0,1,.089.231c0,.082.023.522.023.522a.342.342,0,0,0,.082.12,1.444,1.444,0,0,0,.119.09,1.341,1.341,0,0,1,.247.03.653.653,0,0,0,.208.036.454.454,0,0,1,.232.031.129.129,0,0,1,.023.141.32.32,0,0,1-.225.142c-.1,0-.246.061-.313.061a.4.4,0,0,1-.15-.053c-.044-.014-.164,0-.223-.06a1.442,1.442,0,0,1-.21-.231,1.112,1.112,0,0,1-.045-.4c.008-.03-.052-.081-.1-.081a.643.643,0,0,0-.2.1c-.059.037-.239.105-.321.015a.458.458,0,0,1-.068-.411,1.2,1.2,0,0,1,.262-.4,1.292,1.292,0,0,1,.3-.208l.015-.5a.513.513,0,0,1-.172-.165c-.074-.111-.156-.29-.008-.358s.18-.112.269-.029a.855.855,0,0,0,.187.149.637.637,0,0,0,.291-.06,1.264,1.264,0,0,0,.337-.246.5.5,0,0,0,.126-.411c-.023-.187-.089-.217-.208-.246a1.366,1.366,0,0,0-.5,0,2.435,2.435,0,0,0-.389.119c-.148.06-.253.158-.3.171S227.289,170.759,227.282,170.759Z" fill="#003067" fill-rule="evenodd"/><path d="M230.717,171.154c.1-.006,1.187-.006,1.187-.006a.755.755,0,0,1,.239-.016.342.342,0,0,1,.254.179.349.349,0,0,1-.067.284c-.06.053-.463.3-.463.3s-.418.321-.471.381-.029.119-.074.164-.105.1-.105.1l-.134.232s-.053.1-.015.134a.189.189,0,0,0,.171.015,3.3,3.3,0,0,1,.493-.126,3.553,3.553,0,0,1,.658-.039s.126.053.081.15-.089.194-.157.217-.141-.038-.2-.045a.541.541,0,0,0-.246.014c-.045.031-.127.016-.277.053a2.615,2.615,0,0,0-.441.2.971.971,0,0,1-.418.111c-.171-.014-.239-.081-.246-.276a.5.5,0,0,1,.179-.4c.1-.1.381-.314.4-.351s.007-.134.075-.2.224-.2.224-.2l.283-.29s.075-.143.023-.172a.318.318,0,0,0-.172,0,.433.433,0,0,1-.224.029.242.242,0,0,1-.128-.059,3.39,3.39,0,0,1-.342-.014.313.313,0,0,1-.2-.2C230.567,171.207,230.611,171.162,230.717,171.154Z" fill="#003067" fill-rule="evenodd"/><path d="M234.977,173.431c-.205.1-.193.045-.292.154s-.033.143.034.208.263.051.373.04.132-.078.269-.154a.6.6,0,0,0,.307-.325c.028-.127-.082-.153-.236-.132A1.52,1.52,0,0,0,234.977,173.431Zm-.436-2.531a1.3,1.3,0,0,1,.074-.141.677.677,0,0,1,.141-.179.24.24,0,0,1,.255.007.719.719,0,0,1,.216.2.261.261,0,0,0,.179.11.78.78,0,0,0,.239-.029,2.382,2.382,0,0,0,.29-.239,1.262,1.262,0,0,1,.375-.172.568.568,0,0,1,.239-.052.6.6,0,0,1,.261.187.465.465,0,0,1,.051.388.629.629,0,0,1-.312.486,2.692,2.692,0,0,0-.492.38c-.1.167.044.334.123.457.093.147.065.259.125.31a5.766,5.766,0,0,0,.64.077.815.815,0,0,1,.209.209c.037.053-.121.082-.121.082h-.447c-.135,0-.313.028-.351.112a2.32,2.32,0,0,1-.329.515,2.158,2.158,0,0,1-.56.337,3.476,3.476,0,0,1-.725.119c-.08-.007-.178-.075-.26-.075a.328.328,0,0,1-.232-.111c-.06-.068.053-.113.1-.157a3.7,3.7,0,0,1,.649-.56,2.409,2.409,0,0,1,.7-.266.637.637,0,0,0,.269-.16.261.261,0,0,0,.034-.265,1.558,1.558,0,0,1-.192-.445c-.009-.067.1-.194.158-.238s.21-.09.247-.127.036-.12.074-.172a.8.8,0,0,0,.344-.419.31.31,0,0,0-.09-.3c-.076-.075-.112-.067-.172-.044s-.657.4-.746.447a.464.464,0,0,1-.277.023c-.06-.015-.126-.113-.172-.187s-.127-.075-.209-.1-.059,0-.112.045-.164,0-.164,0a1.138,1.138,0,0,0-.105.073c-.067.053-.067.06-.089.18a.287.287,0,0,1-.134.217c-.091.074-.165.126-.255.09a.556.556,0,0,1-.2-.337.581.581,0,0,1,.119-.381c.082-.127.156-.142.246-.112s.136.194.136.194S234.51,170.9,234.541,170.9Z" fill="#003067" fill-rule="evenodd"/><path d="M238.916,170.886a1.368,1.368,0,0,0,.328-.015c.075-.03.179-.127.262-.15a.161.161,0,0,1,.172.061.562.562,0,0,1,.089.2.06.06,0,0,0,.1.023c.053-.046.03-.15.061-.21a.754.754,0,0,0,.058-.38c-.029-.106-.066-.1-.172-.106a.691.691,0,0,0-.328.09,1.5,1.5,0,0,1-.217.135c-.051.015-.133,0-.164.052a.544.544,0,0,1-.127.157C238.945,170.767,238.916,170.886,238.916,170.886Z" fill="#003067" fill-rule="evenodd"/><path d="M239.678,171.379a1.737,1.737,0,0,0,.037.351.789.789,0,0,0,.209.216.536.536,0,0,0,.223.09c.053,0,.15.112.195.165a.135.135,0,0,1-.008.179c-.045.059-.119.044-.171.126s-.061.112-.18.135-.56.044-.56.044a.416.416,0,0,0-.1.083c-.044.052-.053.052-.06.1s-.006.658-.006.658a.147.147,0,0,1,.1.1c.031.09.083.127.061.231s-.016.2-.09.217-.164-.066-.246-.164a.355.355,0,0,1-.09-.164l-.005-1.212s-.088.013-.092-.132c0-.075.007-.553.007-.553s.053-.127.157-.119.135.037.15.1a1.664,1.664,0,0,1,.008.26s-.016.157.045.209a.427.427,0,0,0,.217.113.3.3,0,0,0,.259-.046.159.159,0,0,0,.061-.209c-.045-.1-.037-.141-.1-.186s-.195-.082-.216-.149a.327.327,0,0,1,.037-.262A1.013,1.013,0,0,1,239.678,171.379Z" fill="#003067" fill-rule="evenodd"/><path d="M241.7,170.909a.579.579,0,0,1,.395.1,1.814,1.814,0,0,1,.121.41s.1.134.217.127.14-.06.148-.127-.008-.575-.008-.575a.625.625,0,0,1-.09-.164.233.233,0,0,0-.148-.172,1.874,1.874,0,0,0-.485.037.269.269,0,0,1-.248-.1c-.044-.052-.133-.112-.291.023s-.209.172-.224.216-.059.232-.134.276a1.027,1.027,0,0,1-.254.075,1.135,1.135,0,0,0-.35.255c-.045.059-.187.164-.18.224a.133.133,0,0,0,.164.089c.075-.022.046-.127.269-.127s.224.111.254.179.015.426.037.478a.4.4,0,0,0,.172.134c.061.03.127-.007.164.067s.149.172.135.225-.112.134-.164.2a5.345,5.345,0,0,1-.494.562,2.24,2.24,0,0,1-.656.4,1.757,1.757,0,0,0,.746-.157,2.093,2.093,0,0,0,.381-.269.2.2,0,0,1,.15-.007c.074.029.1.074.134.163a1.126,1.126,0,0,0,.255.366c.081.053.127.164.193.179a1.541,1.541,0,0,0,.365.024.653.653,0,0,0,.411-.121c.113-.1.224-.208.224-.283a.755.755,0,0,0-.052-.224c-.014-.038-.022-.478-.022-.478a.057.057,0,0,0-.06.038c-.022.044-.046.38-.075.425s-.045.2-.141.253a.923.923,0,0,1-.554.046.5.5,0,0,1-.327-.351,2.252,2.252,0,0,1-.083-.658c.023-.082.187-.216.209-.329s.128-.118.128-.231-.045-.269-.165-.261a.661.661,0,0,0-.284.075c-.059.037-.246.09-.3.037s-.1-.082-.1-.141a4.062,4.062,0,0,1,.008-.516c.023-.067.015-.179.157-.239A1.693,1.693,0,0,1,241.7,170.909Z" fill="#003067" fill-rule="evenodd"/><path d="M217.172,171.73a1.473,1.473,0,0,1,.089.485c-.015.052-.174.072-.224-.007-.037-.06-.008-.127-.037-.188-.062-.122-.127-.156-.156-.29s.029-.165.118-.157A.32.32,0,0,1,217.172,171.73Zm-1.822-.919a.618.618,0,0,1-.135.03.259.259,0,0,1-.194-.149c-.031-.09-.044-.328.03-.3a.418.418,0,0,1,.179.269C215.23,170.737,215.35,170.811,215.35,170.811Zm1.412,3.147s-.039.033-.034.067a.468.468,0,0,0,.065.147c.039.06.15.05.15.05a1.6,1.6,0,0,0-.05-.165C216.871,174.008,216.762,173.958,216.762,173.958Zm-1.616-.494c-.048.016-.136.088-.1.133s.133.026.166.01S215.2,173.447,215.146,173.464Zm.5-.758a.578.578,0,0,0-.2.154c-.049.056-.016.093.028.137s.071.093.137.1.1-.044.132-.054a.622.622,0,0,0,.192-.062.225.225,0,0,0,.115-.181.158.158,0,0,0-.143-.186C215.8,172.591,215.728,172.668,215.641,172.706Zm.986-1.932s-.016.022.021.052.114.045.106.134-.127.165-.195.2a1.541,1.541,0,0,0-.239.165c-.045.044-.014.223.015.276s.03.127-.074.194a.306.306,0,0,0-.173.223.143.143,0,0,0,.076.173c.037.022.4,0,.463.008s.127.051.111.1-.127.059-.194.067a.433.433,0,0,0-.238.089,1.7,1.7,0,0,0-.007.486c.007.082.081.112.155.112s.187-.1.231-.142a.073.073,0,0,1,.121.053c-.008.051-.052.149-.076.231a.5.5,0,0,1-.082.194c-.037.045.008.082.045.179a.46.46,0,0,0,.24.217,1.115,1.115,0,0,1,.305.493.381.381,0,0,1-.09.336c-.044.059-.254.007-.283-.008a3.015,3.015,0,0,1-.291-.328.37.37,0,0,0-.262-.179c-.119-.016-.285.071-.365.052a1.13,1.13,0,0,0-.127-.023c-.135-.015-.052-.074.022-.1a1.348,1.348,0,0,0,.366-.262.74.74,0,0,0,.12-.366.814.814,0,0,0-.083-.209c-.015-.037-.044-.053-.238-.06s-.284.007-.314.045-.119.164-.195.187-.051.1-.089.156a.439.439,0,0,0,.03.307.207.207,0,0,1-.03.2c-.03.029-.268-.015-.268-.015s-.33-.352-.373-.4a.242.242,0,0,1,.006-.246c.044-.068.232-.053.329-.075s.165-.171.165-.239a.27.27,0,0,0-.075-.187.921.921,0,0,0-.24-.022c-.1-.007-.074-.09-.052-.119a2.45,2.45,0,0,1,.336-.314c.1-.068.344-.187.381-.209a.113.113,0,0,0,.053-.1.4.4,0,0,0-.187-.15c-.082-.03-.1-.1-.052-.126a2.512,2.512,0,0,0,.3-.263c.053-.059.015-.1-.067-.149s-.381.015-.486.038a.217.217,0,0,1-.224-.075c-.074-.068.068-.082.15-.1s.12-.075.239-.1.246-.029.373-.052a2.147,2.147,0,0,0,.247-.06,1.033,1.033,0,0,1,.172-.134,2.023,2.023,0,0,0,.26-.187c.038-.037.024-.06.024-.12s.133-.194.133-.291-.1-.156-.126-.186a.246.246,0,0,1-.023-.172,1.143,1.143,0,0,1,.283-.008c.061.015.1.068.143.2s-.066.276-.127.373A.643.643,0,0,0,216.627,170.774Z" fill="#003067"/><path d="M221.26,168.212c-.047.168-.094.327-.094.327h-.211l.131-.45.37-1.247c.03-.108.08-.3.08-.3h.26l.464,1.543a2.351,2.351,0,0,0,.08.241.4.4,0,0,0,.135.18l0,.029h-.358l-.094-.326-.117-.413h-.537Zm.177-.659h.4l-.2-.692Z" fill="#003067" fill-rule="evenodd"/><path d="M222.889,168.539h-.239v-1.6c0-.168,0-.286-.113-.37l-.006-.028.383,0,.086.141.787,1.338v-1.482h.238v2.092a.63.63,0,0,1-.4-.351l-.736-1.257v1.509Z" fill="#003067" fill-rule="evenodd"/><path d="M224.676,168.539h-.24v-1.6c0-.168,0-.286-.112-.37l0-.028.382,0,.085.141.787,1.338v-1.482h.238v2.092a.629.629,0,0,1-.4-.351l-.736-1.257v1.509Z" fill="#003067" fill-rule="evenodd"/><path d="M217.744,166.562a1.71,1.71,0,0,0-.4-.051.993.993,0,0,0-1.061,1.043.966.966,0,0,0,1.045,1.019,2.821,2.821,0,0,0,.6-.087v-.962h-.381v.009c.116.054.118.2.118.338v.43a1.157,1.157,0,0,1-.356.057.786.786,0,0,1-.735-.846.714.714,0,0,1,.705-.785.573.573,0,0,1,.457.179h.008Z" fill="#003067" fill-rule="evenodd"/><path d="M218.735,168.3a1.449,1.449,0,0,0,.156-.008.309.309,0,0,0,.181-.072l.03,0-.092.327h-.795v-1.993h.746v.24l-.28,0h-.214v.55h.368v.243h-.368v.716Z" fill="#003067" fill-rule="evenodd"/><path d="M214.98,168.539h-.24v-1.6c0-.168,0-.286-.111-.37l-.005-.028.382,0,.086.141.787,1.338v-1.083l0-.4h.24v2.092a.631.631,0,0,1-.4-.351l-.736-1.257v1.509Z" fill="#003067" fill-rule="evenodd"/><path d="M219.812,168.3a1.434,1.434,0,0,0,.155-.008.309.309,0,0,0,.181-.072l.032,0-.094.327h-.795v-1.993h.747v.24l-.281,0h-.214v.55h.369v.243h-.369v.716Z" fill="#003067" fill-rule="evenodd"/><path d="M227.871,166.52a.7.7,0,0,1,.275.087.631.631,0,0,1,.3.537.542.542,0,0,1-.409.544,1.028,1.028,0,0,1-.476-.006v.823h-.271v-1.594c0-.168,0-.285-.113-.37l0-.029h.416A2.635,2.635,0,0,1,227.871,166.52Zm.277.6a.332.332,0,0,0-.388-.362l-.2.017v.724l.155.01A.379.379,0,0,0,228.148,167.117Z" fill="#003067"/><rect width="0.251" height="1.994" transform="translate(240.95 166.532)" fill="#003067"/><path d="M232.295,168.56h-.272v-.86l-.4-.784c-.031-.065-.062-.127-.1-.183a.332.332,0,0,0-.111-.125l-.056-.039h.35l.479.861.462-.861h.244l-.6,1.131Z" fill="#003067" fill-rule="evenodd"/><path d="M233.461,168.56v-1.754h-.2a.371.371,0,0,0-.282.115l-.03,0,.086-.361h1.2v.241h-.521v1.754Z" fill="#003067" fill-rule="evenodd"/><path d="M237.029,168.16l-.129.329a.836.836,0,0,1-.4.086.936.936,0,0,1-1.008-1.015.922.922,0,0,1,.926-1.007,1.878,1.878,0,0,1,.475.072v.321a.851.851,0,0,0-.483-.162.657.657,0,0,0-.629.733.752.752,0,0,0,.682.826A1.085,1.085,0,0,0,237.029,168.16Z" fill="#003067" fill-rule="evenodd"/><path d="M237.628,167.577v.946h-.273v-1.54a1.8,1.8,0,0,0-.006-.229.2.2,0,0,0-.094-.165l-.007-.032h.38v.781h.843v-.781h.261v1.967h-.261v-.947Z" fill="#003067" fill-rule="evenodd"/><path d="M243.045,168.127l-.13.33a.86.86,0,0,1-.4.086.937.937,0,0,1-1.007-1.015.922.922,0,0,1,.925-1.008,1.925,1.925,0,0,1,.476.072v.321a.86.86,0,0,0-.483-.161.656.656,0,0,0-.629.732.751.751,0,0,0,.681.826A1.076,1.076,0,0,0,243.045,168.127Z" fill="#003067" fill-rule="evenodd"/><path d="M231.281,168.315h.061a.442.442,0,0,0,.281-.079l.031,0-.094.311h-.894v-1.992h.273v1.765l.2,0Z" fill="#003067"/><path d="M229.557,166.461a.972.972,0,0,0-.953,1.016.962.962,0,0,0,.927,1.025.982.982,0,0,0,.936-1.04A.951.951,0,0,0,229.557,166.461Zm-.018.213c.4,0,.638.416.638.847s-.247.768-.632.768-.651-.425-.651-.839C228.894,167,229.145,166.674,229.539,166.674Z" fill="#003067" fill-rule="evenodd"/><path d="M235.029,168.318a1.028,1.028,0,0,0,.155-.008.3.3,0,0,0,.181-.072l.031,0-.093.326h-.795v-1.993h.748v.242h-.494v.549h.367v.243h-.367v.716Z" fill="#003067" fill-rule="evenodd"/><path d="M239.176,168.524V166.93c0-.168,0-.286-.113-.37l0-.028.382,0,.085.14.786,1.339v-1.482h.239l0,2.091a.626.626,0,0,1-.4-.35l-.735-1.258v1.509Z" fill="#003067" fill-rule="evenodd"/><path d="M252.2,198.489h.552c1.459,0,2.693-.623,2.693-2.244,0-1.409-.734-2.225-3.1-2.225h-1.1v7.692h.958Zm0-3.612h.255c.95,0,2.092.143,2.092,1.347,0,1.224-1.061,1.408-2.04,1.408H252.2Z" fill="#003067" fill-rule="evenodd"/><path d="M268.385,193.857a4.041,4.041,0,0,0-4.03,4.009,4.03,4.03,0,0,0,8.06,0A4.04,4.04,0,0,0,268.385,193.857Zm0,7.121a3.09,3.09,0,0,1-3.071-3.112,3.071,3.071,0,1,1,6.142,0A3.089,3.089,0,0,1,268.385,200.978Z" fill="#003067" fill-rule="evenodd"/><path d="M282.913,194.02h-.96v7.693h3.3v-.877h-2.336Z" fill="#003067" fill-rule="evenodd"/><path d="M295.8,198.366v3.346h.958v-3.346l2.511-4.347h-1.1l-1.887,3.286-1.889-3.286h-1.1Z" fill="#003067" fill-rule="evenodd"/><path d="M310.61,194.9h1.825v-.878h-4.61v.878h1.826v6.815h.959Z" fill="#003067" fill-rule="evenodd"/><path d="M321.8,201.712h4.133v-.877h-3.174v-2.908h3.082v-.877h-3.082V194.9h3.174v-.878H321.8Z" fill="#003067" fill-rule="evenodd"/><path d="M341.326,194.377a3.716,3.716,0,0,0-1.939-.52,4.042,4.042,0,0,0-4.09,4.05,3.981,3.981,0,0,0,4.009,3.969,4.168,4.168,0,0,0,2.02-.541V200.2a3.092,3.092,0,1,1-2.031-5.469,3.115,3.115,0,0,1,2.031.755Z" fill="#003067" fill-rule="evenodd"/><path d="M351.953,197.121v-3.1H351v7.693h.958v-3.693h3.663v3.693h.959V194.02h-.959v3.1Z" fill="#003067" fill-rule="evenodd"/><path d="M366.479,201.712h.96v-5.733l5.774,6.05V194.02h-.959V199.7l-5.775-6.05Z" fill="#003067" fill-rule="evenodd"/><rect width="0.959" height="7.693" transform="translate(383.16 194.02)" fill="#003067"/><path d="M399.769,194.377a3.718,3.718,0,0,0-1.939-.52,4.044,4.044,0,0,0-4.092,4.05,3.983,3.983,0,0,0,4.01,3.969,4.161,4.161,0,0,0,2.021-.541V200.2a3.093,3.093,0,1,1-2.031-5.469,3.117,3.117,0,0,1,2.031.755Z" fill="#003067" fill-rule="evenodd"/><rect width="148.553" height="0.67" transform="translate(251.238 190.315)" fill="#003067"/><path d="M291.391,166.58a23.769,23.769,0,0,0-4.948-.536c-7.624,0-13.009,4.222-13.009,10.995,0,6.333,4.755,10.744,12.821,10.744a39.957,39.957,0,0,0,7.374-.919s0-.972,0-1.445v-7.246c0-.472,0-1.449,0-1.449h-4.665v.094c1.418.568,1.45,2.112,1.45,3.56v4.538a15.981,15.981,0,0,1-4.38.6,8.869,8.869,0,0,1-9.011-8.916c0-5.072,3.75-8.285,8.665-8.285,1.921,0,4.316.44,5.607,1.89h.1Z" fill="#003067" fill-rule="evenodd"/><path d="M299.8,177.165l5.23.015V174.9l-5.23,0v-6.077l7.025-.013v-2.26l-1.575,0h-8.661v20.73h10.968l1.2-3.136h-.094c-1.1.937-4.327.867-4.86.868l-4-.012Z" fill="#003067" fill-rule="evenodd"/><path d="M254.324,170.99,265.13,184.7a8.338,8.338,0,0,0,5.349,3.592l-.006-21.739h-3.011v16L255.931,168l-1.132-1.45h-5.131v.1c1.639.945,1.639,2.205,1.639,3.969l0,16.666h3.019Z" fill="#003067" fill-rule="evenodd"/><path d="M314.917,177.165l5.229.015V174.9l-5.229,0v-6.077l7.024-.013v-2.26l-10.235,0v20.73h10.968l1.2-3.136h-.1c-1.1.937-4.326.867-4.859.868l-4-.012Z" fill="#003067" fill-rule="evenodd"/><path d="M346.575,179.5l2.985,7.781h4.734v-.094c-1.8-.914-2.362-2.678-3.087-4.474l-6.554-16.162H341.26l-8.151,20.73h2.6l2.93-7.781Zm-.913-2.332h-6.207l3.119-7.939Z" fill="#003067" fill-rule="evenodd"/><path d="M359.871,170.99,370.678,184.7a8.336,8.336,0,0,0,5.349,3.592l-.007-21.739H373v16L361.478,168l-1.132-1.45h-5.131v.1c1.639.945,1.639,2.205,1.639,3.969l0,16.666h3.019Z" fill="#003067" fill-rule="evenodd"/><path d="M383.637,170.99l10.8,13.705a8.333,8.333,0,0,0,5.349,3.592V166.548h-3.018v16L385.242,168l-1.133-1.45H378.98v.1c1.638.945,1.638,2.205,1.638,3.969l0,16.666h3.021Z" fill="#003067" fill-rule="evenodd"/></g></svg>